{
  "asset": {
    "generator": "glTF-Transform v4.2.1",
    "version": "2.0"
  },
  "accessors": [
    {
      "type": "VEC3",
      "componentType": 5126,
      "count": 17206,
      "max": [
        50.900516510009766,
        48.788455963134766,
        22.910255432128906
      ],
      "min": [
        -50.85810089111328,
        -84.33586883544922,
        -0.06823726743459702
      ],
      "bufferView": 0,
      "byteOffset": 0
    },
    {
      "type": "VEC3",
      "componentType": 5126,
      "count": 17206,
      "bufferView": 0,
      "byteOffset": 12
    },
    {
      "type": "SCALAR",
      "componentType": 5123,
      "count": 5616,
      "bufferView": 1,
      "byteOffset": 0
    },
    {
      "type": "SCALAR",
      "componentType": 5123,
      "count": 7920,
      "bufferView": 1,
      "byteOffset": 11232
    },
    {
      "type": "SCALAR",
      "componentType": 5123,
      "count": 3168,
      "bufferView": 1,
      "byteOffset": 27072
    },
    {
      "type": "SCALAR",
      "componentType": 5123,
      "count": 288,
      "bufferView": 1,
      "byteOffset": 33408
    },
    {
      "type": "SCALAR",
      "componentType": 5123,
      "count": 3456,
      "bufferView": 1,
      "byteOffset": 33984
    },
    {
      "type": "SCALAR",
      "componentType": 5123,
      "count": 20838,
      "bufferView": 1,
      "byteOffset": 40896
    },
    {
      "type": "SCALAR",
      "componentType": 5123,
      "count": 33792,
      "bufferView": 1,
      "byteOffset": 82572
    },
    {
      "type": "SCALAR",
      "componentType": 5123,
      "count": 17802,
      "bufferView": 1,
      "byteOffset": 150156
    },
    {
      "type": "SCALAR",
      "componentType": 5123,
      "count": 1512,
      "bufferView": 1,
      "byteOffset": 185760
    },
    {
      "type": "SCALAR",
      "componentType": 5123,
      "count": 1512,
      "bufferView": 1,
      "byteOffset": 188784
    },
    {
      "type": "SCALAR",
      "componentType": 5123,
      "count": 1512,
      "bufferView": 1,
      "byteOffset": 191808
    }
  ],
  "bufferViews": [
    {
      "buffer": 0,
      "byteOffset": 0,
      "byteLength": 412944,
      "byteStride": 24,
      "target": 34962
    },
    {
      "buffer": 0,
      "byteOffset": 412944,
      "byteLength": 194832,
      "target": 34963
    }
  ],
  "buffers": [
    {
      "uri": "buffer.bin",
      "byteLength": 607776
    }
  ],
  "materials": [
    {
      "name": "Material #1",
      "pbrMetallicRoughness": {
        "roughnessFactor": 0.5,
        "metallicFactor": 1.401298464324817e-44
      }
    },
    {
      "name": "Material #1_wire",
      "pbrMetallicRoughness": {
        "baseColorFactor": [
          0.7490196228027344,
          0.7490196228027344,
          0.7490196228027344,
          1
        ],
        "roughnessFactor": 0.5,
        "metallicFactor": 2.942726775082116e-44
      }
    }
  ],
  "meshes": [
    {
      "primitives": [
        {
          "attributes": {
            "POSITION": 0,
            "NORMAL": 1
          },
          "mode": 4,
          "material": 0,
          "indices": 2
        },
        {
          "attributes": {
            "POSITION": 0,
            "NORMAL": 1
          },
          "mode": 4,
          "material": 0,
          "indices": 3
        },
        {
          "attributes": {
            "POSITION": 0,
            "NORMAL": 1
          },
          "mode": 4,
          "material": 0,
          "indices": 4
        },
        {
          "attributes": {
            "POSITION": 0,
            "NORMAL": 1
          },
          "mode": 4,
          "material": 0,
          "indices": 5
        },
        {
          "attributes": {
            "POSITION": 0,
            "NORMAL": 1
          },
          "mode": 4,
          "material": 1,
          "indices": 6
        },
        {
          "attributes": {
            "POSITION": 0,
            "NORMAL": 1
          },
          "mode": 4,
          "material": 0,
          "indices": 7
        },
        {
          "attributes": {
            "POSITION": 0,
            "NORMAL": 1
          },
          "mode": 4,
          "material": 0,
          "indices": 8
        },
        {
          "attributes": {
            "POSITION": 0,
            "NORMAL": 1
          },
          "mode": 4,
          "material": 0,
          "indices": 9
        },
        {
          "attributes": {
            "POSITION": 0,
            "NORMAL": 1
          },
          "mode": 4,
          "material": 0,
          "indices": 10
        },
        {
          "attributes": {
            "POSITION": 0,
            "NORMAL": 1
          },
          "mode": 4,
          "material": 0,
          "indices": 11
        },
        {
          "attributes": {
            "POSITION": 0,
            "NORMAL": 1
          },
          "mode": 4,
          "material": 0,
          "indices": 12
        }
      ]
    }
  ],
  "nodes": [
    {
      "name": "Object_2_10"
    },
    {
      "name": "Object_2_21"
    },
    {
      "name": "Object_2_32"
    },
    {
      "name": "Object_2_43"
    },
    {
      "name": "Object_2_54"
    },
    {
      "name": "Object_2_65"
    },
    {
      "name": "Object_2_76"
    },
    {
      "name": "Object_2_87"
    },
    {
      "name": "Object_2_98"
    },
    {
      "name": "Object_2_109"
    },
    {
      "name": "Object_2_120"
    },
    {
      "name": "Object_2_131"
    },
    {
      "name": "Object_2_142"
    },
    {
      "name": "Object_2_153"
    },
    {
      "name": "Object_2_164"
    },
    {
      "name": "Object_2_175"
    },
    {
      "name": "Object_2_186"
    },
    {
      "name": "Object_2_197"
    },
    {
      "name": "Object_2_208"
    },
    {
      "name": "Object_2_219"
    },
    {
      "name": "Object_2_230"
    },
    {
      "name": "Object_2_241"
    },
    {
      "name": "Object_2_252"
    },
    {
      "name": "Object_2_263"
    },
    {
      "name": "British_Museum",
      "translation": [
        -0.021208763122558594,
        0,
        -17.77370262145996
      ],
      "children": [
        25
      ]
    },
    {
      "name": "British_Museum_1",
      "rotation": [
        -0.7071067811865475,
        0,
        0,
        0.7071067811865476
      ],
      "mesh": 0
    }
  ],
  "scenes": [
    {
      "name": "empty_1",
      "nodes": [
        0,
        1,
        2,
        3,
        4,
        5,
        6,
        7,
        8,
        9,
        10,
        11,
        12,
        13,
        14,
        15,
        16,
        17,
        18,
        19,
        20,
        21,
        22,
        23,
        24
      ]
    }
  ],
  "scene": 0
}